{"title":"Reality Kings - 8th Street Latinas - Massage My Member","uid":4997532,"size":489877751,"categoryP":"porn","categoryS":"movie_clips","magnet":"?xt=urn:btih:49f496b157461bad00e9387973c0cc8c7707f4d6&amp;dn=Reality+Kings+-+8th+Street+Latinas+-+Massage+My+Member&amp;tr=udp%3A%2F%2Ftracker.openbittorrent.com%3A80&amp;tr=udp%3A%2F%2Fopen.demonii.com%3A1337&amp;tr=udp%3A%2F%2Ftracker.coppersurfer.tk%3A6969&amp;tr=udp%3A%2F%2Fexodus.desync.com%3A6969","seeders":2,"leechers":0,"uploader":"gorgon99","files":1,"time":1247348985,"description":"&quot;Today I decided to get an erotic massage. I called a few places, but when I heard Channell's voice I had to make sure I got my massage from her. Once she got to my place, she set her stuff up and started working. She told me to lay on my back, and that's when she saw my dick awake, and ready for some attention. She wanted an increase on her pay, so things got hot and heavy. She gave some of the best sloppy head, and would not stop till I took off her pants and fucked her all over her massage table. This Latina loves the dick, and I made sure she was satisfied... Enjoy!&quot;\n\nOne WMV file:\n\nFormat : Windows Media \nFile size : 467 MiB \nDuration : 44mn 57s \nOverall bit rate mode : Constant \nOverall bit rate : 1 453 Kbps \nMaximum Overall bit rate : 1 463 Kbps \nMovie name : RealityKings.com \nPerformer : Channell \nEncoded date : UTC 2009-07-09 19:40:23.939 \nCopyright : www.8thstreetLatinas.com \nComment : Massage My Member \nRating : Adults Only \n\nVideo  ID : 2 \nFormat : VC-1 \nFormat profile : MP@ML \nCodec ID : WMV3 \nCodec ID/Info : Windows Media Video 9 \nCodec ID/Hint : WMV3 \nDuration : 44mn 54s \nBit rate mode : Constant \nBit rate : 1 400 Kbps \nWidth : 720 pixels \nHeight : 404 pixels \nDisplay aspect ratio : 16/9 \nFrame rate : 29.970 fps \nResolution : 24 bits \nScan type : Progressive \nBits/(Pixel*Frame) : 0.161 \nStream size : 450 MiB (96%) \n\nAudio  ID : 1 \nFormat : WMA2 \nFormat profile : L2 \nCodec ID : 161 \nCodec ID/Info : Windows Media Audio 2 \nDescription of the codec : Windows Media Audio 9.1 - 48 kbps, 44 kHz, stereo 1-pass CBR \nDuration : 44mn 57s \nBit rate mode : Constant \nBit rate : 48.0 Kbps \nChannel(s) : 2 channels \nSampling rate : 44.1 KHz \nResolution : 16 bits \nStream size : 15.4 MiB (3%) \n","torrent":{"xt":"urn:btih:49f496b157461bad00e9387973c0cc8c7707f4d6","amp;dn":"Reality+Kings+-+8th+Street+Latinas+-+Massage+My+Member","amp;tr":["udp%3A%2F%2Ftracker.openbittorrent.com%3A80","udp%3A%2F%2Fopen.demonii.com%3A1337","udp%3A%2F%2Ftracker.coppersurfer.tk%3A6969","udp%3A%2F%2Fexodus.desync.com%3A6969"],"infoHash":"49f496b157461bad00e9387973c0cc8c7707f4d6","infoHashBuffer":{"type":"Buffer","data":[73,244,150,177,87,70,27,173,0,233,56,121,115,192,204,140,119,7,244,214]},"announce":[],"urlList":[]}}